<svg xmlns="http://www.w3.org/2000/svg" viewBox="0 0 446.99 446.99"><defs><style>.cls-1{fill:#e7e8e3;}.cls-2{fill:#000b96;}.cls-3{fill:#fff;}.cls-4{fill:#bf0000;}</style></defs><g id="Capa_7" data-name="Capa 7"><circle class="cls-1" cx="223.5" cy="223.5" r="223.5"/></g><g id="Capa_3" data-name="Capa 3"><rect class="cls-2" x="207.08" y="56.32" width="34.5" height="56.82"/><rect class="cls-3" x="207.08" y="277.04" width="34.5" height="56.82"/><rect class="cls-4" x="207.08" y="169.96" width="34.5" height="107.07"/><rect class="cls-3" x="207.08" y="113.14" width="34.5" height="56.82"/><rect class="cls-2" x="207.08" y="333.86" width="34.5" height="56.82"/><path d="M312.11,116.34A20.59,20.59,0,0,0,277,130.9v76.3H253.61V73.57a29.28,29.28,0,1,0-58.55,0v57H183V77.45a20.59,20.59,0,1,0-41.18,0v73.74a20.61,20.61,0,0,0,20.59,20.59h32.62V283H180.22V255.57a20.59,20.59,0,0,0-41.18,0v48a20.62,20.62,0,0,0,20.59,20.59h35.43v66.55H165.8a6,6,0,0,0,0,12H282.87a6,6,0,0,0,0-12H253.61V248.38h43.94a20.62,20.62,0,0,0,20.59-20.59V130.9A20.49,20.49,0,0,0,312.11,116.34ZM162.43,159.75a8.57,8.57,0,0,1-8.56-8.56V77.45a8.56,8.56,0,1,1,17.12,0v59.16a6,6,0,0,0,6,6h18.05v17.12Zm143.68,68a8.57,8.57,0,0,1-8.56,8.56H238a6,6,0,0,0,0,12h3.62v142.3H207.08V324.13h8.43a6,6,0,0,0,0-12H159.63a8.57,8.57,0,0,1-8.56-8.56v-48a8.56,8.56,0,0,1,17.12,0V289a6,6,0,0,0,6,6h41.3a6,6,0,0,0,0-12h-8.43V73.57a17.26,17.26,0,0,1,34.51,0V207.2H238a6,6,0,1,0,0,12h45a6,6,0,0,0,6-6V130.9a8.56,8.56,0,0,1,14.61-6.05,8.47,8.47,0,0,1,2.51,6.05v96.89Z" transform="translate(0)"/></g></svg>