<?xml version="1.0" encoding="utf-8"?>
<!-- Generator: Adobe Illustrator 24.2.0, SVG Export Plug-In . SVG Version: 6.00 Build 0)  -->
<svg version="1.1" id="Layer_1" xmlns="http://www.w3.org/2000/svg" xmlns:xlink="http://www.w3.org/1999/xlink" x="0px" y="0px"
	 viewBox="0 0 73.6 128" style="enable-background:new 0 0 73.6 128;" xml:space="preserve">
<style type="text/css">
	.st0{fill:none;stroke:#4BC190;stroke-width:2.42;stroke-linecap:round;stroke-linejoin:round;}
	.st1{fill:none;stroke:#4BC190;stroke-width:2.5;stroke-linecap:round;stroke-linejoin:round;}
	
		.st2{opacity:0.3;fill:none;stroke:#356CB6;stroke-width:2.42;stroke-linecap:round;stroke-linejoin:round;enable-background:new    ;}
	
		.st3{opacity:0.3;fill:none;stroke:#356CB6;stroke-width:2.5;stroke-linecap:round;stroke-linejoin:round;enable-background:new    ;}
	.st4{fill:#4BC190;}
	.st5{opacity:0.2;fill:none;stroke:#FFFFFF;stroke-width:4;stroke-linecap:round;stroke-miterlimit:10;enable-background:new    ;}
	.st6{opacity:0.3;fill:#356CB6;enable-background:new    ;}
	.st7{fill:#F85565;}
	.st8{fill:#8F5653;}
	.st9{fill:#B56B63;}
	.st10{opacity:0.5;fill:#DB7A72;enable-background:new    ;}
	.st11{fill:#393C54;}
	.st12{opacity:0.3;fill:#F85565;enable-background:new    ;}
	
		.st13{opacity:0.2;fill:none;stroke:#515570;stroke-width:2;stroke-linecap:round;stroke-linejoin:round;enable-background:new    ;}
</style>
<polyline class="st0" points="6.9,66.4 11.6,69.8 6.9,73.2 "/>
<polyline class="st0" points="6.9,47.4 11.6,50.8 6.9,54.2 "/>
<polyline class="st0" points="6.9,28.4 11.6,31.8 6.9,35.2 "/>
<polyline class="st1" points="16.2,11 17.2,17 11.3,16 "/>
<polyline class="st0" points="67.1,66.4 62.4,69.8 67.1,73.2 "/>
<polyline class="st0" points="67.1,47.4 62.4,50.8 67.1,54.2 "/>
<polyline class="st0" points="68.3,28.4 63.6,31.8 68.3,35.2 "/>
<polyline class="st1" points="57.7,11 56.7,17 62.7,16 "/>
<polyline class="st2" points="67.1,66.4 62.4,69.8 67.1,73.2 "/>
<polyline class="st2" points="67.1,47.4 62.4,50.8 67.1,54.2 "/>
<polyline class="st2" points="68.3,28.4 63.6,31.8 68.3,35.2 "/>
<polyline class="st3" points="57.7,11 56.7,17 62.7,16 "/>
<path class="st4" d="M36.8,105.4c-14.4,0-26.1-11.7-26.1-26.1V34.2c0-14.4,11.7-26.1,26.1-26.1s26.1,11.7,26.1,26.1v45.1
	C62.9,93.7,51.2,105.4,36.8,105.4z"/>
<path class="st5" d="M17.8,34.2c0-10.5,8.5-19,19-19"/>
<path class="st6" d="M51.4,12.5c2.9,4.3,4.4,9.4,4.4,14.6v36.8C55.8,78.3,44.1,90,29.7,90c-5.2,0-10.3-1.5-14.6-4.4
	c4.9,7.2,13,11.6,21.7,11.6c14.4,0,26.1-3.4,26.1-17.8V34.2C62.9,25.5,58.6,17.4,51.4,12.5z"/>
<path class="st7" d="M36.2,1.2c-1.5-1.5-4-1.5-5.5,0c-0.1,0.1-0.2,0.2-0.3,0.3c-1.3,1.6-1.1,3.9,0.4,5.4l4.7,4.7
	c0.4,0.4,0.9,0.4,1.3,0l4.7-4.7c1.5-1.4,1.6-3.7,0.4-5.4c-1.4-1.7-3.8-1.9-5.5-0.5C36.4,1,36.3,1.1,36.2,1.2z"/>
<g>
	<path class="st8" d="M10.3,125.2c0.2,1.5,1.7,2.8,3.2,2.8h46.6c1.6,0,3-1.3,3.2-2.8l4.1-35.9c0.2-1.5-1-2.8-2.5-2.8H7.6
		c-1.6,0-2.7,1.3-2.4,2.8L10.3,125.2z"/>
</g>
<path class="st9" d="M2.4,80.5h68.9c1.3,0,2.4,1.1,2.4,2.4v8.3c0,1.3-1.1,2.4-2.4,2.4H2.4c-1.3,0-2.4-1.1-2.4-2.4v-8.3
	C0,81.6,1.1,80.5,2.4,80.5z"/>
<path class="st10" d="M71.2,80.5H2.4c-1.3,0-2.4,1.1-2.4,2.4v3.6c0-1.3,1.1-2.4,2.4-2.4h68.9c1.3,0,2.4,1.1,2.4,2.4v-3.6
	C73.6,81.6,72.6,80.5,71.2,80.5z"/>
<path class="st11" d="M45.8,54.8c0.7,0,1.2,0.6,1.1,1.3c0,0,0,0,0,0c-0.5,5.6-5.5,9.7-11.1,9.1c-4.8-0.5-8.6-4.3-9.1-9.1
	c-0.1-0.7,0.4-1.2,1.1-1.3c0,0,0,0,0,0H45.8z"/>
<path class="st7" d="M36.8,57.9c-3,0-5.8,1.2-7.8,3.4c3.5,4.3,9.8,5,14.1,1.5c0.6-0.5,1.1-1,1.5-1.5C42.6,59.2,39.8,57.9,36.8,57.9z
	"/>
<ellipse class="st12" cx="23.7" cy="51.2" rx="3.6" ry="2.4"/>
<ellipse class="st12" cx="49.9" cy="51.2" rx="3.6" ry="2.4"/>
<ellipse class="st11" cx="49.9" cy="45.2" rx="2.4" ry="2.4"/>
<g id="Capa_2">
	<ellipse class="st11" cx="23.8" cy="45.3" rx="2.4" ry="2.4"/>
</g>
<line class="st13" x1="33.2" y1="68.6" x2="40.4" y2="68.6"/>
</svg>
