<?xml version="1.0" encoding="utf-8"?>
<!-- Generator: Adobe Illustrator 24.2.0, SVG Export Plug-In . SVG Version: 6.00 Build 0)  -->
<svg version="1.1" xmlns="http://www.w3.org/2000/svg" xmlns:xlink="http://www.w3.org/1999/xlink" x="0px" y="0px"
	 viewBox="0 0 447 447" style="enable-background:new 0 0 447 447;" xml:space="preserve">
<style type="text/css">
	.st0{fill:#45A79B;}
	.st1{fill:#000B96;}
	.st2{fill:#FFFFFF;}
	.st3{fill:#BF0000;}
</style>
<g id="Capa_7">
	<circle class="st0" cx="223.5" cy="223.5" r="223.5"/>
</g>
<g id="Capa_2">
	<rect x="200.1" y="41.7" class="st1" width="37.5" height="61.8"/>
</g>
<g id="Capa_4">
	<rect x="200.1" y="281.7" class="st2" width="37.5" height="61.8"/>
</g>
<g id="Capa_6">
	<rect x="200.1" y="165.3" class="st3" width="37.5" height="116.5"/>
</g>
<g id="Capa_5">
	<rect x="200.1" y="103.5" class="st2" width="37.5" height="61.8"/>
</g>
<g id="Capa_3">
	<rect x="200.1" y="343.5" class="st1" width="37.5" height="61.8"/>
</g>
<g id="Capa_1">
	<path d="M314.3,107c-4.2-4.2-9.9-6.6-15.8-6.6c-12.3,0-22.4,10-22.4,22.4v83h-25.4V60.4c0-17.6-14.3-31.8-31.8-31.8
		c-17.6,0-31.8,14.3-31.8,31.8v62h-13.1V64.7c0-12.3-10-22.4-22.4-22.4c-6,0-11.6,2.3-15.8,6.6c-4.2,4.2-6.6,9.8-6.6,15.8v80.2
		c0,12.3,10,22.4,22.4,22.4H187v120.9h-16.1v-29.8c0-12.3-10-22.4-22.4-22.4c-6,0-11.6,2.3-15.8,6.6s-6.6,9.9-6.6,15.8v52.2
		c0,12.3,10,22.4,22.4,22.4H187v72.4h-31.8c-3.6,0-6.5,2.9-6.5,6.5c0,3.6,2.9,6.5,6.5,6.5h127.3c3.6,0,6.5-2.9,6.5-6.5
		c0-3.6-2.9-6.5-6.5-6.5h-31.8V250.6h47.8c12.3,0,22.4-10,22.4-22.4V122.8C320.9,116.8,318.6,111.2,314.3,107z M151.5,154.2
		c-5.1,0-9.3-4.2-9.3-9.3V64.7c0-2.5,1-4.8,2.7-6.6c1.8-1.8,4.1-2.7,6.6-2.7c5.1,0,9.3,4.2,9.3,9.3V129c0,3.6,2.9,6.5,6.5,6.5H187
		v18.6H151.5z M307.8,228.2c0,5.1-4.2,9.3-9.3,9.3h-64.8c-3.6,0-6.5,2.9-6.5,6.5c0,3.6,2.9,6.5,6.5,6.5h3.9v154.8h-37.5v-72.4h9.2
		c3.6,0,6.5-2.9,6.5-6.5c0-3.6-2.9-6.5-6.5-6.5h-60.8c-5.1,0-9.3-4.2-9.3-9.3v-52.2c0-2.5,1-4.8,2.7-6.6c1.8-1.8,4.1-2.7,6.6-2.7
		c5.1,0,9.3,4.2,9.3,9.3v36.3c0,3.6,2.9,6.5,6.5,6.5h44.9c3.6,0,6.5-2.9,6.5-6.5s-2.9-6.5-6.5-6.5h-9.2V60.4
		c0-10.3,8.4-18.8,18.8-18.8c10.3,0,18.8,8.4,18.8,18.8v145.3h-3.9c-3.6,0-6.5,2.9-6.5,6.5c0,3.6,2.9,6.5,6.5,6.5h48.9
		c3.6,0,6.5-2.9,6.5-6.5v-89.5c0-5.1,4.2-9.3,9.3-9.3c2.5,0,4.8,1,6.6,2.7c1.8,1.8,2.7,4.1,2.7,6.6L307.8,228.2L307.8,228.2z"/>
</g>
</svg>
