<?xml version="1.0" encoding="utf-8"?>
<!-- Generator: Adobe Illustrator 24.2.0, SVG Export Plug-In . SVG Version: 6.00 Build 0)  -->
<svg version="1.1" xmlns="http://www.w3.org/2000/svg" xmlns:xlink="http://www.w3.org/1999/xlink" x="0px" y="0px"
	 viewBox="0 0 512 512" style="enable-background:new 0 0 512 512;" xml:space="preserve">
<style type="text/css">
	.st0{fill:#51B58B;}
	.st1{fill:#8C6239;}
	.st2{fill:#001487;}
	.st3{fill:#FFFFFF;}
	.st4{fill:#C40000;}
</style>
<g id="Layer_1">
	<g>
		<circle class="st0" cx="367.1" cy="38.5" r="28.3"/>
		<path class="st0" d="M380.6,142.4c0-64.9-52.6-117.5-117.5-117.5S145.6,77.5,145.6,142.4c0,39.7,19.7,74.6,49.8,95.9h135.5
			C361,217,380.6,182.1,380.6,142.4z"/>
	</g>
	<polygon class="st1" points="111,238.3 111,313.8 127.2,313.8 156.1,501.8 355.9,501.8 384.8,313.8 401,313.8 401,238.3 	"/>
	<g id="Capa_9">
		<g>
			
				<rect x="151.7" y="478" transform="matrix(-1 -1.224647e-16 1.224647e-16 -1 511.111 969.6387)" class="st2" width="207.8" height="13.6"/>
			
				<rect x="151.7" y="414.8" transform="matrix(-1 -1.224647e-16 1.224647e-16 -1 511.111 843.1122)" class="st2" width="207.8" height="13.6"/>
			
				<rect x="151.7" y="464.5" transform="matrix(-1 -1.224647e-16 1.224647e-16 -1 511.111 942.5067)" class="st3" width="207.8" height="13.6"/>
			
				<rect x="151.7" y="428.3" transform="matrix(-1 -1.224647e-16 1.224647e-16 -1 511.111 870.2442)" class="st3" width="207.8" height="13.6"/>
			
				<rect x="151.7" y="441.9" transform="matrix(-1 -1.224647e-16 1.224647e-16 -1 511.111 907.8977)" class="st4" width="207.8" height="24.1"/>
		</g>
	</g>
	<path d="M401,228.1h-43.3c21.1-23.3,33.2-53.8,33.2-85.7c0-24.1-6.7-46.7-18.4-65.9c18.6-2.6,33-18.7,33-38.1
		c0-21.2-17.3-38.5-38.5-38.5c-19.4,0-35.4,14.4-38.1,33c-19.3-11.6-41.8-18.4-65.9-18.4c-70.4,0-127.7,57.3-127.7,127.7
		c0,31.9,12.1,62.4,33.2,85.7H111c-5.6,0-10.2,4.6-10.2,10.2v75.5c0,5.6,4.6,10.2,10.2,10.2h7.5l27.6,179.4c0.8,5,5,8.6,10.1,8.6
		h199.7c5,0,9.3-3.7,10.1-8.6L393.5,324h7.5c5.6,0,10.2-4.6,10.2-10.2v-75.5C411.2,232.7,406.6,228.1,401,228.1z M367.1,20.4
		c10,0,18.1,8.1,18.1,18.1s-8.1,18.1-18.1,18.1c-10,0-18.1-8.1-18.1-18.1S357.1,20.4,367.1,20.4z M155.8,142.4
		c0-59.2,48.1-107.3,107.3-107.3c59.2,0,107.3,48.1,107.3,107.3c0,33.6-16,65.4-42.9,85.7H198.7
		C171.8,207.9,155.8,176.1,155.8,142.4z M390.8,248.5v55.1h-6c-5,0-9.3,3.7-10.1,8.6l-27.6,179.4H164.9L139.1,324h93.3
		c5.6,0,10.2-4.6,10.2-10.2s-4.6-10.2-10.2-10.2H121.2v-55.1L390.8,248.5L390.8,248.5z"/>
	<path d="M320.6,303.6h-25.2c-5.6,0-10.2,4.6-10.2,10.2s4.6,10.2,10.2,10.2h25.2c5.6,0,10.2-4.6,10.2-10.2S326.2,303.6,320.6,303.6z
		"/>
	<path d="M213.4,145.8c0-14.6,1.4-28.7,4.1-42c1.1-5.5-2.4-10.9-7.9-12c-5.5-1.1-10.9,2.4-12,7.9c-3,14.7-4.6,30.2-4.6,46.1
		c0,16.8,1.7,33.1,5.1,48.5c1,4.8,5.3,8,10,8c0.7,0,1.5-0.1,2.2-0.2c5.5-1.2,9-6.6,7.8-12.1C215,176,213.4,161.2,213.4,145.8z"/>
	<path d="M331.2,178.8c1.3-10,2-20.3,2-30.7c0-23.1-3.3-45.6-9.5-65.2c-1.7-5.4-7.4-8.3-12.8-6.6c-5.4,1.7-8.3,7.4-6.6,12.8
		c5.6,17.6,8.6,38,8.6,59.1c0,9.5-0.6,19-1.8,28.1c-0.7,5.6,3.2,10.7,8.8,11.4c0.5,0.1,0.9,0.1,1.3,0.1
		C326.2,187.7,330.6,183.9,331.2,178.8z"/>
	<path d="M263.1,54.2c-5.6,0-10.2,4.6-10.2,10.2v14.7c0,5.6,4.6,10.2,10.2,10.2c5.6,0,10.2-4.6,10.2-10.2V64.4
		C273.3,58.8,268.7,54.2,263.1,54.2z"/>
	<path d="M263.1,102.8c-5.6,0-10.2,4.6-10.2,10.2v84.8c0,5.6,4.6,10.2,10.2,10.2c5.6,0,10.2-4.6,10.2-10.2V113
		C273.3,107.4,268.7,102.8,263.1,102.8z"/>
</g>
<g id="Capa_2">
	<path d="M130.3,44.7c-2.2,3-1.5,7.3,1.6,9.4l45.7,32.6c3,2.2,7.3,1.5,9.4-1.6c2.2-3,1.5-7.3-1.6-9.4l-45.7-32.6
		C136.7,40.9,132.5,41.6,130.3,44.7z"/>
</g>
<g id="Capa_3">
	<path d="M110.4,202.8c1.5,3.4,5.5,4.9,8.9,3.4l51.3-22.8c3.4-1.5,4.9-5.5,3.4-8.9c-1.5-3.4-5.5-4.9-8.9-3.4l-51.3,22.8
		C110.4,195.4,108.8,199.4,110.4,202.8z"/>
</g>
<g id="Capa_4">
	<path d="M346.9,148.4c0,3.7,3,6.8,6.8,6.7l56.1-0.1c3.7,0,6.8-3,6.7-6.8s-3-6.8-6.8-6.7l-56.1,0.1
		C349.9,141.6,346.9,144.6,346.9,148.4z"/>
</g>
</svg>
