<?xml version="1.0" encoding="utf-8"?>
<!-- Generator: Adobe Illustrator 24.2.0, SVG Export Plug-In . SVG Version: 6.00 Build 0)  -->
<svg version="1.1" xmlns="http://www.w3.org/2000/svg" xmlns:xlink="http://www.w3.org/1999/xlink" x="0px" y="0px"
	 viewBox="0 0 447 447" style="enable-background:new 0 0 447 447;" xml:space="preserve">
<style type="text/css">
	.st0{fill:#E7E8E3;}
	.st1{clip-path:url(#SVGID_2_);}
	.st2{fill:#45A79B;}
</style>
<g id="Capa_7">
	<circle class="st0" cx="223.5" cy="223.5" r="223.5"/>
</g>
<g id="Capa_10">
	<g>
		<defs>
			<circle id="SVGID_1_" cx="223.5" cy="223.5" r="223.5"/>
		</defs>
		<clipPath id="SVGID_2_">
			<use xlink:href="#SVGID_1_"  style="overflow:visible;"/>
		</clipPath>
		<g class="st1">
			<rect x="151.8" y="184.9" class="st2" width="42.4" height="36.7"/>
			<rect x="250.9" y="296.7" class="st2" width="72.4" height="36.7"/>
			<rect x="148.6" y="406.2" class="st2" width="57.1" height="36.7"/>
			<rect x="319.8" y="160.3" class="st2" width="27.4" height="173.2"/>
			<rect x="124.4" y="339" class="st2" width="27.4" height="104"/>
			<rect x="128.3" y="84.9" class="st2" width="27.4" height="138.6"/>
			<rect x="204.8" y="66.8" class="st2" width="49.7" height="480.9"/>
			<path d="M355.8,153.2c-5.6-5.6-13-8.7-20.9-8.7c-16.3,0-29.6,13.3-29.6,29.6v109.7h-33.6V91.6c0-23.2-18.9-42.1-42.1-42.1
				c-23.2,0-42.1,18.9-42.1,42.1v82h-17.3V97.2c0-16.3-13.3-29.6-29.6-29.6c-7.9,0-15.3,3.1-20.9,8.7c-5.6,5.6-8.7,13-8.7,20.9v106
				c0,16.3,13.3,29.6,29.6,29.6h46.9v159.9h-21.3v-39.4c0-16.3-13.3-29.6-29.6-29.6c-7.9,0-15.3,3.1-20.9,8.7
				c-5.6,5.6-8.7,13-8.7,20.9v69c0,16.3,13.3,29.6,29.6,29.6h50.9v95.7h-42.1c-4.8,0-8.6,3.9-8.6,8.6c0,4.8,3.9,8.6,8.6,8.6h168.4
				c4.8,0,8.6-3.9,8.6-8.6c0-4.8-3.9-8.6-8.6-8.6h-42.1V343h63.2c16.3,0,29.6-13.3,29.6-29.6V174.1
				C364.5,166.2,361.4,158.7,355.8,153.2z M140.6,215.6c-6.8,0-12.3-5.5-12.3-12.3v-106c0-3.3,1.3-6.4,3.6-8.7
				c2.3-2.3,5.4-3.6,8.7-3.6c6.8,0,12.3,5.5,12.3,12.3v85.1c0,4.8,3.9,8.6,8.6,8.6h26v24.6H140.6z M347.2,313.4
				c0,6.8-5.5,12.3-12.3,12.3h-85.7c-4.8,0-8.6,3.9-8.6,8.6s3.9,8.6,8.6,8.6h5.2v204.6h-49.6V452h12.1c4.8,0,8.6-3.9,8.6-8.6
				s-3.9-8.6-8.6-8.6h-80.4c-6.8,0-12.3-5.5-12.3-12.3v-69c0-3.3,1.3-6.4,3.6-8.7c2.3-2.3,5.4-3.6,8.7-3.6c6.8,0,12.3,5.5,12.3,12.3
				v48c0,4.8,3.9,8.6,8.6,8.6h59.4c4.8,0,8.6-3.9,8.6-8.6s-3.9-8.6-8.6-8.6h-12.1V91.6c0-13.7,11.1-24.8,24.8-24.8
				s24.8,11.1,24.8,24.8v192.2h-5.2c-4.8,0-8.6,3.9-8.6,8.6s3.9,8.6,8.6,8.6h64.7c4.8,0,8.6-3.9,8.6-8.6V174.1
				c0-6.8,5.5-12.3,12.3-12.3c3.3,0,6.4,1.3,8.7,3.6c2.3,2.3,3.6,5.4,3.6,8.7L347.2,313.4L347.2,313.4z"/>
		</g>
	</g>
</g>
</svg>
