<?xml version="1.0" encoding="utf-8"?>
<!-- Generator: Adobe Illustrator 24.2.0, SVG Export Plug-In . SVG Version: 6.00 Build 0)  -->
<svg version="1.1" xmlns="http://www.w3.org/2000/svg" xmlns:xlink="http://www.w3.org/1999/xlink" x="0px" y="0px"
	 viewBox="0 0 223.4 447" style="enable-background:new 0 0 223.4 447;" xml:space="preserve">
<style type="text/css">
	.st0{fill:#000B96;}
	.st1{fill:#FFFFFF;}
	.st2{fill:#BF0000;}
</style>
<g id="Capa_2">
	<rect x="84.9" y="15" class="st0" width="43" height="70.9"/>
</g>
<g id="Capa_4">
	<rect x="84.9" y="290.3" class="st1" width="43" height="70.9"/>
</g>
<g id="Capa_6">
	<rect x="84.9" y="156.7" class="st2" width="43" height="133.5"/>
</g>
<g id="Capa_5">
	<rect x="84.9" y="85.9" class="st1" width="43" height="70.9"/>
</g>
<g id="Capa_3">
	<rect x="84.9" y="361.1" class="st0" width="43" height="70.9"/>
</g>
<g id="Capa_1">
	<path d="M215.8,89.9c-4.9-4.9-11.3-7.5-18.2-7.5c-14.2,0-25.7,11.5-25.7,25.7v95.2h-29.1V36.5c0-20.1-16.4-36.5-36.5-36.5
		C86.2,0,69.9,16.4,69.9,36.5v71.1h-15V41.4c0-14.2-11.5-25.7-25.7-25.7c-6.9,0-13.3,2.7-18.2,7.5c-4.8,4.8-7.5,11.3-7.5,18.2v92
		C3.5,147.5,15,159,29.2,159h40.7v138.6H51.4v-34.1c0-14.2-11.5-25.7-25.7-25.7c-6.9,0-13.3,2.7-18.2,7.5S0,256.6,0,263.5v59.8
		C0,337.5,11.5,349,25.7,349h44.2v83H33.4c-4.1,0-7.5,3.4-7.5,7.5s3.4,7.5,7.5,7.5h146c4.1,0,7.5-3.4,7.5-7.5s-3.4-7.5-7.5-7.5
		h-36.5V254.5h54.8c14.2,0,25.7-11.5,25.7-25.7V108C223.4,101.2,220.7,94.7,215.8,89.9z M29.2,144c-5.9,0-10.7-4.8-10.7-10.7v-92
		c0-2.9,1.1-5.5,3.1-7.5c2-2,4.7-3.1,7.6-3.1c5.9,0,10.7,4.8,10.7,10.7v73.8c0,4.1,3.4,7.5,7.5,7.5h22.5V144H29.2z M208.4,228.8
		c0,5.9-4.8,10.7-10.7,10.7h-74.3c-4.1,0-7.5,3.4-7.5,7.5s3.4,7.5,7.5,7.5h4.5V432h-43v-83h10.5c4.1,0,7.5-3.4,7.5-7.5
		s-3.4-7.5-7.5-7.5H25.7c-5.9,0-10.7-4.8-10.7-10.7v-59.8c0-2.9,1.1-5.5,3.1-7.5c2-2,4.7-3.1,7.6-3.1c5.9,0,10.7,4.8,10.7,10.7v41.6
		c0,4.1,3.4,7.5,7.5,7.5h51.5c4.1,0,7.5-3.4,7.5-7.5s-3.4-7.5-7.5-7.5H84.9V36.5c0-11.9,9.7-21.5,21.5-21.5s21.5,9.7,21.5,21.5
		v166.7h-4.5c-4.1,0-7.5,3.4-7.5,7.5s3.4,7.5,7.5,7.5h56.1c4.1,0,7.5-3.4,7.5-7.5V108c0-5.9,4.8-10.7,10.7-10.7
		c2.9,0,5.5,1.1,7.5,3.1c2,2,3.1,4.7,3.1,7.5L208.4,228.8L208.4,228.8z"/>
</g>
</svg>
